# xmcd
#
# Track frame offsets: 
#        150
#        12175
#        25570
#        37224
#        49475
#        61291
#        73264
#        85365
#        99397
#        112630
#        124237
#        136771
#        149382
#        161294
#        173769
#        186269
#        199206
#        212570
#        226787
#        239589
#        251808
#        264527
#        275396
#        286019
#        297763
#        309566
#
# Disc length: 4263 seconds
#
# Revision: 0
# Processed by: cddbd v1.5.1PL0 Copyright (c) Steve Scherf et al.
# Submitted via: ExactAudioCopy v0.95a5
#
DISCID=7910a51a
DTITLE=Eddie "Cleanhead" Vinson - Bald Headed Blues - King Recordings 
DTITLE=1949-1952
DYEAR=1900
DGENRE=Blues
TTITLE0=Ashes on my Pillow
TTITLE1=I'm Gonna Wind Your Clock
TTITLE2=Wineola
TTITLE3=Somebody Done Stole My Cherry Red
TTITLE4=Eddie's Bounce
TTITLE5=I'm Weak But Willing
TTITLE6=Sittin' on It All the Time
TTITLE7=Featherbed Mama
TTITLE8=No Good Woman Blues
TTITLE9=Bald Headed Blues
TTITLE10=I Trusted You Baby (But You Double Crossed Me)
TTITLE11=Peas and Rice
TTITLE12=Big Mouth Gal
TTITLE13=My Big Brass Bed Is Gone
TTITLE14=Queen Bee Blues
TTITLE15=If You Don't Think I'm Sinking
TTITLE16=Jump and Grunt
TTITLE17=Rainy Mornin' Blues
TTITLE18=Home Boy
TTITLE19=People on My Party Line
TTITLE20=Time After Time
TTITLE21=Lonesome Train
TTITLE22=Person to Person [Alternate Take]
TTITLE23=I Need You (Tonight)
TTITLE24=Good Bread Alley
TTITLE25=Person to Person
EXTD=
EXTT0=
EXTT1=
EXTT2=
EXTT3=
EXTT4=
EXTT5=
EXTT6=
EXTT7=
EXTT8=
EXTT9=
EXTT10=
EXTT11=
EXTT12=
EXTT13=
EXTT14=
EXTT15=
EXTT16=
EXTT17=
EXTT18=
EXTT19=
EXTT20=
EXTT21=
EXTT22=
EXTT23=
EXTT24=
EXTT25=
PLAYORDER=
